#!OML:ASF H:\Dans Jumps\Project 1\Capture day 1\Session 1\subject.ASF
:FULLY-SPECIFIED
:DEGREES
246
root 0.580023 24.3841 -4.46404 10.8247 -1.34372 -1.67694
lowerback 4.24886 -0.127814 -0.651814
upperback -0.144608 -0.185171 0.70037
thorax -2.52622 -0.0795343 1.09705
lowerneck -7.21419 -0.0528891 -1.49034
upperneck 29.2015 -0.362727 1.9206
head 10.5166 -0.119792 0.905035
rclavicle -2.03754e-015 2.98177e-015
rhumerus -45.5965 4.24315 -74.7868
rradius 45.5109
rwrist 21.4641
rhand -21.1747 -24.6442
rfingers 7.12502
rthumb 5.2057 -54.5602
lclavicle -2.03754e-015 2.98177e-015
lhumerus -37.5262 -20.2269 71.3638
lradius 39.6021
lwrist 32.9822
lhand -29.7368 -12.9062
lfingers 7.12502
lthumb -3.06328 17.0515
rfemur -28.8566 -8.29435 23.3595
rtibia 43.0683
rfoot 18.6234 -7.48346
rtoes 18.4127
lfemur -28.4885 16.7528 -20.334
ltibia 39.2031
lfoot 24.8182 0.623984
ltoes -2.74302
247
root 0.575899 24.4264 -4.32512 10.7809 -1.16053 -1.69215
lowerback 4.8287 -0.148131 -0.695069
upperback -0.0853705 -0.216107 0.727003
thorax -2.78978 -0.0930383 1.15329
lowerneck -7.31079 -0.0555034 -1.42114
upperneck 29.2475 -0.388286 1.95641
head 10.5534 -0.119343 0.903669
rclavicle 3.03147e-015 -2.28602e-015
rhumerus -46.293 4.23513 -75.4233
rradius 44.9144
rwrist 21.5596
rhand -21.1038 -24.6458
rfingers 7.12502
rthumb 5.27409 -54.5602
lclavicle 3.03147e-015 -2.28602e-015
lhumerus -38.0027 -20.5423 72.3694
lradius 39.2138
lwrist 32.7499
lhand -29.6665 -12.8387
lfingers 7.12502
lthumb -2.99538 17.1201
rfemur -29.874 -8.3728 23.5632
rtibia 42.7545
rfoot 18.2598 -7.53084
rtoes 17.9722
lfemur -29.7684 16.8012 -20.5014
ltibia 39.469
lfoot 24.2285 0.593998
ltoes -3.05525
248
root 0.571782 24.4562 -4.18585 10.6882 -0.991093 -1.71082
lowerback 5.46106 -0.16153 -0.745138
upperback -0.0200058 -0.238737 0.758141
thorax -3.07655 -0.102004 1.21828
lowerneck -7.41614 -0.063256 -1.35295
upperneck 29.303 -0.42221 1.99537
head 10.5957 -0.122364 0.902785
rclavicle 2.08724e-015 4.07509e-015
rhumerus -47.0174 4.25943 -76.0705
rradius 44.3466
rwrist 21.6618
rhand -21.0423 -24.6247
rfingers 7.12502
rthumb 5.33354 -54.5376
lclavicle 2.08724e-015 4.07509e-015
lhumerus -38.5334 -20.8618 73.4124
lradius 38.8435
lwrist 32.535
lhand -29.581 -12.8044
lfingers 7.12502
lthumb -2.91279 17.1555
rfemur -30.81 -8.44044 23.7479
rtibia 42.3417
rfoot 17.8944 -7.53225
rtoes 17.5045
lfemur -30.9717 16.8296 -20.6333
ltibia 39.6538
lfoot 23.6466 0.398214
ltoes -3.26274
249
root 0.567675 24.473 -4.04622 10.5626 -0.841404 -1.73719
lowerback 6.12311 -0.167124 -0.792843
upperback 0.052992 -0.25152 0.7872
thorax -3.37223 -0.105916 1.27968
lowerneck -7.53348 -0.0745457 -1.28388
upperneck 29.3577 -0.465228 2.04723
head 10.6404 -0.127866 0.905381
rclavicle 2.41026e-015 -3.18055e-015
rhumerus -47.7601 4.30733 -76.7415
rradius 43.8114
rwrist 21.7828
rhand -20.9792 -24.6002
rfingers 7.12502
rthumb 5.39447 -54.5115
lclavicle 2.41026e-015 -3.18055e-015
lhumerus -39.1133 -21.1767 74.4713
lradius 38.5071
lwrist 32.3574
lhand -29.4736 -12.7877
lfingers 7.12502
lthumb -2.80908 17.1736
rfemur -31.6833 -8.48837 23.9198
rtibia 41.8315
rfoot 17.5357 -7.47806
rtoes 17.0114
lfemur -32.1133 16.8529 -20.7337
ltibia 39.7396
lfoot 23.0365 0.0578943
ltoes -3.48513
250
root 0.563769 24.4768 -3.90553 10.4229 -0.716268 -1.77127
lowerback 6.77879 -0.16609 -0.835778
upperback 0.137916 -0.25575 0.812158
thorax -3.65208 -0.105681 1.3337
lowerneck -7.66099 -0.0881923 -1.21424
upperneck 29.3963 -0.514571 2.10881
head 10.6813 -0.135 0.910533
rclavicle -2.5345e-015 1.49089e-015
rhumerus -48.5031 4.38028 -77.4425
rradius 43.3109
rwrist 21.9131
rhand -20.9187 -24.596
rfingers 7.12502
rthumb 5.45282 -54.5058
lclavicle -2.5345e-015 1.49089e-015
lhumerus -39.7399 -21.4924 75.5432
lradius 38.2149
lwrist 32.2535
lhand -29.3631 -12.8088
lfingers 7.12502
lthumb -2.70234 17.1539
rfemur -32.512 -8.52177 24.0826
rtibia 41.2246
rfoot 17.1786 -7.35551
rtoes 16.4318
lfemur -33.2024 16.8812 -20.8112
ltibia 39.7068
lfoot 22.3811 -0.357136
ltoes -3.71618
251
root 0.560063 24.4675 -3.7636 10.2853 -0.6179 -1.81857
lowerback 7.41406 -0.157795 -0.863665
upperback 0.224778 -0.249575 0.832479
thorax -3.9186 -0.100563 1.37351
lowerneck -7.77761 -0.10454 -1.13408
upperneck 29.4093 -0.568089 2.1642
head 10.7104 -0.143643 0.910878
rclavicle 5.91384e-015 -2.88238e-015
rhumerus -49.2682 4.46141 -78.1676
rradius 42.8709
rwrist 22.045
rhand -20.8778 -24.6077
rfingers 7.12502
rthumb 5.49238 -54.5165
lclavicle 5.91384e-015 -2.88238e-015
lhumerus -40.4296 -21.8036 76.6285
lradius 37.9832
lwrist 32.2278
lhand -29.2641 -12.8491
lfingers 7.12502
lthumb -2.60677 17.1147
rfemur -33.3133 -8.5381 24.2459
rtibia 40.5217
rfoot 16.8293 -7.1978
rtoes 15.8279
lfemur -34.2478 16.917 -20.8645
ltibia 39.5364
lfoot 21.6696 -0.787831
ltoes -3.96835
252
root 0.556529 24.4454 -3.62029 10.1667 -0.549887 -1.87286
lowerback 8.00188 -0.142868 -0.881886
upperback 0.316614 -0.233957 0.847249
thorax -4.15342 -0.0911717 1.40079
lowerneck -7.88769 -0.118539 -1.0393
upperneck 29.3926 -0.616978 2.20561
head 10.7269 -0.150255 0.903846
rclavicle -7.7526e-015 -7.95139e-016
rhumerus -50.0317 4.53243 -78.9048
rradius 42.4795
rwrist 22.1618
rhand -20.8525 -24.6424
rfingers 7.12502
rthumb 5.51676 -54.5506
lclavicle -7.7526e-015 -7.95139e-016
lhumerus -41.1747 -22.1184 77.7346
lradius 37.8133
lwrist 32.2977
lhand -29.2063 -12.9259
lfingers 7.12502
lthumb -2.55094 17.0386
rfemur -34.1046 -8.53774 24.4074
rtibia 39.7219
rfoot 16.5029 -7.02959
rtoes 15.2193
lfemur -35.2564 16.9579 -20.9043
ltibia 39.2087
lfoot 20.8965 -1.18717
ltoes -4.32937
